<svg xmlns="http://www.w3.org/2000/svg" width="960" height="560" viewBox="0 0 960 560" role="img" aria-label="题图替代示意 · cg-02-s1-q24">
<rect width="960" height="560" rx="24" fill="#f8fafc"/>
<rect x="24" y="20" width="912" height="58" rx="14" fill="#ffffff" stroke="#cbd5e1"/>
<text x="52" y="57" fill="#172033" font-size="24" font-weight="700">题图替代示意 · cg-02-s1-q24</text>
<text x="906" y="57" fill="#667085" font-size="15" text-anchor="end">重绘示意 · 非原始截图</text>
<rect x="24" y="486" width="912" height="50" rx="12" fill="#ffffff" stroke="#cbd5e1"/>
<text x="48" y="517" fill="#667085" font-size="16">在二维码生成器中输入“信息技术教师招聘”，右侧生成二维码。</text>
<rect x="74" y="125" width="330" height="285" rx="14" fill="#ffffff" stroke="#cbd5e1"/>
<text x="92" y="155" fill="#172033" font-size="17" font-weight="700">二维码生成器</text><rect x="102" y="184" width="270" height="48" rx="7" fill="#ffffff" stroke="#94a3b8"/><text x="120" y="215" fill="#172033" font-size="19">信息技术教师招聘</text><rect x="102" y="255" width="130" height="44" rx="7" fill="#2563eb"/><text x="167" y="284" fill="#fff" font-size="17" text-anchor="middle">生成二维码</text><rect x="545" y="125" width="250" height="285" rx="14" fill="#ffffff" stroke="#cbd5e1"/>
<text x="563" y="155" fill="#172033" font-size="17" font-weight="700">生成结果</text><rect x="580" y="170" width="14" height="14" fill="#172033"/><rect x="594" y="170" width="14" height="14" fill="#172033"/><rect x="650" y="170" width="14" height="14" fill="#172033"/><rect x="664" y="170" width="14" height="14" fill="#172033"/><rect x="720" y="170" width="14" height="14" fill="#172033"/><rect x="734" y="170" width="14" height="14" fill="#172033"/><rect x="608" y="184" width="14" height="14" fill="#172033"/><rect x="636" y="184" width="14" height="14" fill="#172033"/><rect x="678" y="184" width="14" height="14" fill="#172033"/><rect x="706" y="184" width="14" height="14" fill="#172033"/><rect x="748" y="184" width="14" height="14" fill="#172033"/><rect x="608" y="198" width="14" height="14" fill="#172033"/><rect x="636" y="198" width="14" height="14" fill="#172033"/><rect x="678" y="198" width="14" height="14" fill="#172033"/><rect x="706" y="198" width="14" height="14" fill="#172033"/><rect x="748" y="198" width="14" height="14" fill="#172033"/><rect x="580" y="212" width="14" height="14" fill="#172033"/><rect x="594" y="212" width="14" height="14" fill="#172033"/><rect x="650" y="212" width="14" height="14" fill="#172033"/><rect x="664" y="212" width="14" height="14" fill="#172033"/><rect x="720" y="212" width="14" height="14" fill="#172033"/><rect x="734" y="212" width="14" height="14" fill="#172033"/><rect x="580" y="240" width="14" height="14" fill="#172033"/><rect x="594" y="240" width="14" height="14" fill="#172033"/><rect x="650" y="240" width="14" height="14" fill="#172033"/><rect x="664" y="240" width="14" height="14" fill="#172033"/><rect x="720" y="240" width="14" height="14" fill="#172033"/><rect x="734" y="240" width="14" height="14" fill="#172033"/><rect x="608" y="254" width="14" height="14" fill="#172033"/><rect x="636" y="254" width="14" height="14" fill="#172033"/><rect x="678" y="254" width="14" height="14" fill="#172033"/><rect x="706" y="254" width="14" height="14" fill="#172033"/><rect x="748" y="254" width="14" height="14" fill="#172033"/><rect x="608" y="268" width="14" height="14" fill="#172033"/><rect x="636" y="268" width="14" height="14" fill="#172033"/><rect x="678" y="268" width="14" height="14" fill="#172033"/><rect x="706" y="268" width="14" height="14" fill="#172033"/><rect x="748" y="268" width="14" height="14" fill="#172033"/><rect x="580" y="282" width="14" height="14" fill="#172033"/><rect x="594" y="282" width="14" height="14" fill="#172033"/><rect x="650" y="282" width="14" height="14" fill="#172033"/><rect x="664" y="282" width="14" height="14" fill="#172033"/><rect x="720" y="282" width="14" height="14" fill="#172033"/><rect x="734" y="282" width="14" height="14" fill="#172033"/><rect x="580" y="310" width="14" height="14" fill="#172033"/><rect x="594" y="310" width="14" height="14" fill="#172033"/><rect x="650" y="310" width="14" height="14" fill="#172033"/><rect x="664" y="310" width="14" height="14" fill="#172033"/><rect x="720" y="310" width="14" height="14" fill="#172033"/><rect x="734" y="310" width="14" height="14" fill="#172033"/><rect x="608" y="324" width="14" height="14" fill="#172033"/><rect x="636" y="324" width="14" height="14" fill="#172033"/><rect x="678" y="324" width="14" height="14" fill="#172033"/><rect x="706" y="324" width="14" height="14" fill="#172033"/><rect x="748" y="324" width="14" height="14" fill="#172033"/><rect x="608" y="338" width="14" height="14" fill="#172033"/><rect x="636" y="338" width="14" height="14" fill="#172033"/><rect x="678" y="338" width="14" height="14" fill="#172033"/><rect x="706" y="338" width="14" height="14" fill="#172033"/><rect x="748" y="338" width="14" height="14" fill="#172033"/><path d="M434 262h75" stroke="#2563eb" stroke-width="5"/><path d="m497 248 20 14-20 14" fill="none" stroke="#2563eb" stroke-width="5"/></svg>
