<svg xmlns="http://www.w3.org/2000/svg" width="960" height="560" viewBox="0 0 960 560" role="img" aria-label="题图替代示意 · cg-02-s1-q28">
<rect width="960" height="560" rx="24" fill="#f8fafc"/>
<rect x="24" y="20" width="912" height="58" rx="14" fill="#ffffff" stroke="#cbd5e1"/>
<text x="52" y="57" fill="#172033" font-size="24" font-weight="700">题图替代示意 · cg-02-s1-q28</text>
<text x="906" y="57" fill="#667085" font-size="15" text-anchor="end">重绘示意 · 非原始截图</text>
<rect x="24" y="486" width="912" height="50" rx="12" fill="#ffffff" stroke="#cbd5e1"/>
<text x="48" y="517" fill="#667085" font-size="16">摄像头捕捉面部表情，软件据此生成虚拟三维人像。</text>
<rect x="105" y="135" width="330" height="230" rx="16" fill="#0f172a"/><rect x="127" y="157" width="286" height="186" rx="10" fill="#bfdbfe"/><circle cx="270" cy="245" r="60" fill="#f4c7a1"/><path d="M211 232q58-83 118 0v-25q-58-55-118 0z" fill="#334155"/><circle cx="248" cy="245" r="5"/><circle cx="292" cy="245" r="5"/><path d="M248 278q22 15 44 0" fill="none" stroke="#b45309" stroke-width="4"/><circle cx="401" cy="172" r="9" fill="#ef4444"/><path d="M505 247h100" stroke="#7c3aed" stroke-width="5"/><path d="m590 232 22 15-22 15" fill="none" stroke="#7c3aed" stroke-width="5"/><path d="M700 170c-72 38-66 146 0 180 66-34 72-142 0-180z" fill="#ddd6fe" stroke="#7c3aed" stroke-width="4"/><path d="M700 190v140M660 225h80M660 278h80" stroke="#7c3aed" stroke-width="3"/></svg>
