<svg xmlns="http://www.w3.org/2000/svg" width="960" height="560" viewBox="0 0 960 560" role="img" aria-label="题图替代示意 · cg-02-s3-q8">
<rect width="960" height="560" rx="24" fill="#f8fafc"/>
<rect x="24" y="20" width="912" height="58" rx="14" fill="#ffffff" stroke="#cbd5e1"/>
<text x="52" y="57" fill="#172033" font-size="24" font-weight="700">题图替代示意 · cg-02-s3-q8</text>
<text x="906" y="57" fill="#667085" font-size="15" text-anchor="end">重绘示意 · 非原始截图</text>
<rect x="24" y="486" width="912" height="50" rx="12" fill="#ffffff" stroke="#cbd5e1"/>
<text x="48" y="517" fill="#667085" font-size="16">音频播放器状态栏：WAV、44 100 Hz、立体声。</text>
<rect x="130" y="155" width="700" height="190" rx="14" fill="#0f172a" stroke="#cbd5e1"/>
<text x="148" y="185" fill="#172033" font-size="17" font-weight="700">音频播放器状态栏</text><circle cx="190" cy="250" r="36" fill="#2563eb"/><path d="M180 230l30 20-30 20z" fill="#fff"/><rect x="255" y="242" width="330" height="10" rx="5" fill="#475569"/><rect x="255" y="242" width="105" height="10" rx="5" fill="#22c55e"/><text x="275" y="300" fill="#f8fafc" font-size="23">WAV · 44 100 Hz · 立体声</text><rect x="650" y="236.0" width="10" height="28" rx="5" fill="#60a5fa"/><rect x="668" y="222.5" width="10" height="55" rx="5" fill="#60a5fa"/><rect x="686" y="212.0" width="10" height="76" rx="5" fill="#60a5fa"/><rect x="704" y="227.5" width="10" height="45" rx="5" fill="#60a5fa"/><rect x="722" y="217.5" width="10" height="65" rx="5" fill="#60a5fa"/><rect x="740" y="232.5" width="10" height="35" rx="5" fill="#60a5fa"/><rect x="758" y="221.0" width="10" height="58" rx="5" fill="#60a5fa"/><rect x="776" y="238.0" width="10" height="24" rx="5" fill="#60a5fa"/></svg>
