<svg xmlns="http://www.w3.org/2000/svg" width="960" height="560" viewBox="0 0 960 560" role="img" aria-label="题图替代示意 · cg-03-s1-q15">
<rect width="960" height="560" rx="24" fill="#f8fafc"/>
<rect x="24" y="20" width="912" height="58" rx="14" fill="#ffffff" stroke="#cbd5e1"/>
<text x="52" y="57" fill="#172033" font-size="24" font-weight="700">题图替代示意 · cg-03-s1-q15</text>
<text x="906" y="57" fill="#667085" font-size="15" text-anchor="end">重绘示意 · 非原始截图</text>
<rect x="24" y="486" width="912" height="50" rx="12" fill="#ffffff" stroke="#cbd5e1"/>
<text x="48" y="517" fill="#667085" font-size="16">声音工具栏中带红点的麦克风按钮。</text>
<rect x="250" y="145" width="460" height="230" rx="18" fill="#fff" stroke="#cbd5e1"/><rect x="315" y="190" width="75" height="75" rx="18" fill="#fef3c7" stroke="#d97706" stroke-width="3"/><path d="M352 205v32m-16-16h32" stroke="#d97706" stroke-width="4"/><rect x="430" y="190" width="75" height="75" rx="18" fill="#fee2e2" stroke="#dc2626" stroke-width="3"/><rect x="458" y="208" width="20" height="30" rx="10" fill="#dc2626"/><path d="M448 235q20 24 40 0M468 259v20m-18 0h36" fill="none" stroke="#dc2626" stroke-width="4"/><rect x="545" y="190" width="75" height="75" rx="18" fill="#dbeafe" stroke="#2563eb" stroke-width="3"/><path d="M566 225h34m-17-17v34" stroke="#2563eb" stroke-width="4"/><text x="468" y="325" fill="#667085" font-size="20" text-anchor="middle">红点麦克风：录制声音</text></svg>
