<svg xmlns="http://www.w3.org/2000/svg" width="960" height="560" viewBox="0 0 960 560" role="img" aria-label="题图替代示意 · cg-04-s3-q21">
<defs><marker id="arrow" markerWidth="10" markerHeight="8" refX="8" refY="4" orient="auto"><path d="M0,0 L10,4 L0,8z" fill="#2563eb"/></marker></defs><rect width="960" height="560" rx="24" fill="#f8fafc"/>
<rect x="24" y="20" width="912" height="58" rx="14" fill="#ffffff" stroke="#cbd5e1"/>
<text x="52" y="57" fill="#172033" font-size="24" font-weight="700">题图替代示意 · cg-04-s3-q21</text>
<text x="906" y="57" fill="#667085" font-size="15" text-anchor="end">重绘示意 · 非原始截图</text>
<rect x="24" y="486" width="912" height="50" rx="12" fill="#ffffff" stroke="#cbd5e1"/>
<text x="48" y="517" fill="#667085" font-size="16">密码验证：输入密码，错误则返回重新输入，正确则通过验证。</text>
<rect x="130" y="170" width="150" height="54" rx="10" fill="#fff" stroke="#94a3b8"/><text x="205" y="204" fill="#172033" font-size="16" text-anchor="middle">① 插入银行卡</text><rect x="365" y="170" width="150" height="54" rx="10" fill="#fff" stroke="#94a3b8"/><text x="440" y="204" fill="#172033" font-size="16" text-anchor="middle">② 输入密码</text><rect x="600" y="170" width="150" height="54" rx="10" fill="#fff" stroke="#94a3b8"/><text x="675" y="204" fill="#172033" font-size="16" text-anchor="middle">③ 核验密码</text><rect x="600" y="300" width="150" height="54" rx="10" fill="#fff" stroke="#94a3b8"/><text x="675" y="334" fill="#172033" font-size="16" text-anchor="middle">④ 密码正确？</text><rect x="790" y="300" width="150" height="54" rx="10" fill="#fff" stroke="#94a3b8"/><text x="865" y="334" fill="#172033" font-size="16" text-anchor="middle">⑤ 通过验证</text><rect x="360" y="420" width="150" height="54" rx="10" fill="#fff" stroke="#94a3b8"/><text x="435" y="454" fill="#172033" font-size="16" text-anchor="middle">⑥ 返回重输</text><path d="M280 197 L365 197" stroke="#2563eb" stroke-width="4" fill="none" marker-end="url(#arrow)"/><path d="M515 197 L600 197" stroke="#2563eb" stroke-width="4" fill="none" marker-end="url(#arrow)"/><path d="M675 224 L675 300" stroke="#2563eb" stroke-width="4" fill="none" marker-end="url(#arrow)"/><path d="M750 327 L790 327" stroke="#2563eb" stroke-width="4" fill="none" marker-end="url(#arrow)"/><path d="M600 354 L435 447" stroke="#2563eb" stroke-width="4" fill="none" marker-end="url(#arrow)"/><path d="M435 420 L435 224" stroke="#2563eb" stroke-width="4" fill="none" marker-end="url(#arrow)"/></svg>
