<svg xmlns="http://www.w3.org/2000/svg" width="960" height="560" viewBox="0 0 960 560" role="img" aria-label="题图替代示意 · cg-02-s2-q9">
<rect width="960" height="560" rx="24" fill="#f8fafc"/>
<rect x="24" y="20" width="912" height="58" rx="14" fill="#ffffff" stroke="#cbd5e1"/>
<text x="52" y="57" fill="#172033" font-size="24" font-weight="700">题图替代示意 · cg-02-s2-q9</text>
<text x="906" y="57" fill="#667085" font-size="15" text-anchor="end">重绘示意 · 非原始截图</text>
<rect x="24" y="486" width="912" height="50" rx="12" fill="#ffffff" stroke="#cbd5e1"/>
<text x="48" y="517" fill="#667085" font-size="16">常见图形文件格式：BMP、GIF、JPG、WMF。</text>
<rect x="75" y="150" width="165" height="220" rx="16" fill="#fff" stroke="#cbd5e1"/><path d="M113 190h60l30 30v84h-90z" fill="#2563eb" opacity=".18" stroke="#2563eb" stroke-width="3"/><text x="158" y="294" font-size="25" text-anchor="middle" fill="#2563eb" font-weight="700">BMP</text><text x="158" y="332" font-size="16" text-anchor="middle" fill="#667085">静态位图</text><rect x="290" y="150" width="165" height="220" rx="16" fill="#fff" stroke="#cbd5e1"/><path d="M328 190h60l30 30v84h-90z" fill="#059669" opacity=".18" stroke="#059669" stroke-width="3"/><text x="373" y="294" font-size="25" text-anchor="middle" fill="#059669" font-weight="700">GIF</text><text x="373" y="332" font-size="16" text-anchor="middle" fill="#667085">多帧动画</text><rect x="505" y="150" width="165" height="220" rx="16" fill="#fff" stroke="#cbd5e1"/><path d="M543 190h60l30 30v84h-90z" fill="#d97706" opacity=".18" stroke="#d97706" stroke-width="3"/><text x="588" y="294" font-size="25" text-anchor="middle" fill="#d97706" font-weight="700">JPG</text><text x="588" y="332" font-size="16" text-anchor="middle" fill="#667085">压缩照片</text><rect x="720" y="150" width="165" height="220" rx="16" fill="#fff" stroke="#cbd5e1"/><path d="M758 190h60l30 30v84h-90z" fill="#7c3aed" opacity=".18" stroke="#7c3aed" stroke-width="3"/><text x="803" y="294" font-size="25" text-anchor="middle" fill="#7c3aed" font-weight="700">WMF</text><text x="803" y="332" font-size="16" text-anchor="middle" fill="#667085">矢量图元</text></svg>
