<svg xmlns="http://www.w3.org/2000/svg" width="960" height="560" viewBox="0 0 960 560" role="img" aria-label="题图替代示意 · cg-13-s1-q21-dup2">
<rect width="960" height="560" rx="24" fill="#f8fafc"/>
<rect x="24" y="20" width="912" height="58" rx="14" fill="#ffffff" stroke="#cbd5e1"/>
<text x="52" y="57" fill="#172033" font-size="24" font-weight="700">题图替代示意 · cg-13-s1-q21-dup2</text>
<text x="906" y="57" fill="#667085" font-size="15" text-anchor="end">重绘示意 · 非原始截图</text>
<rect x="24" y="486" width="912" height="50" rx="12" fill="#ffffff" stroke="#cbd5e1"/>
<text x="48" y="517" fill="#667085" font-size="16">使用椭圆工具时，要画出如图所示的正圆，需配合（ ）键使用。</text>
<rect x="95" y="115" width="770" height="310" rx="12" fill="#1e293b" stroke="#475569"/><rect x="95" y="115" width="770" height="44" rx="12" fill="#0f172a"/><text x="125" y="144" fill="#e2e8f0" font-size="20" font-weight="700">Photoshop 工作区</text><rect x="145" y="180" width="420" height="210" fill="#d8b4fe"/><path d="M180 350q80-140 150 0t165 0" fill="#fef3c7" stroke="#64748b" stroke-width="4"/><rect x="600" y="180" width="215" height="42" fill="#334155"/><text x="618" y="208" fill="#f8fafc" font-size="15">图层 / 画笔 / 颜色</text><circle cx="710" cy="285" r="42" fill="#a78bfa"/><circle cx="750" cy="315" r="42" fill="#c4b5fd" opacity=".8"/><rect x="610" y="345" width="58" height="25" fill="#111827"/><rect x="671" y="345" width="58" height="25" fill="#ffffff" stroke="#94a3b8"/></svg>
