<svg xmlns="http://www.w3.org/2000/svg" width="960" height="560" viewBox="0 0 960 560" role="img" aria-label="题图替代示意 · cg-14-s1-q36">
<rect width="960" height="560" rx="24" fill="#f8fafc"/>
<rect x="24" y="20" width="912" height="58" rx="14" fill="#ffffff" stroke="#cbd5e1"/>
<text x="52" y="57" fill="#172033" font-size="24" font-weight="700">题图替代示意 · cg-14-s1-q36</text>
<text x="906" y="57" fill="#667085" font-size="15" text-anchor="end">重绘示意 · 非原始截图</text>
<rect x="24" y="486" width="912" height="50" rx="12" fill="#ffffff" stroke="#cbd5e1"/>
<text x="48" y="517" fill="#667085" font-size="16">下图为引导层动画，其中为引导层的是（ ）。</text>
<rect x="85" y="115" width="790" height="310" rx="12" fill="#fff" stroke="#94a3b8"/><rect x="85" y="115" width="790" height="44" rx="12" fill="#4f46e5"/><text x="115" y="144" fill="#fff" font-size="20" font-weight="700">Flash / Animate 时间轴</text><rect x="120" y="185" width="235" height="160" fill="#fef3c7" stroke="#d97706"/><circle cx="238" cy="265" r="44" fill="#f59e0b"/><path d="M238 205v-20M238 345v20M178 265h-20M298 265h20" stroke="#d97706" stroke-width="5"/><text x="405" y="225" fill="#475569" font-size="15">图层 1</text><path d="M470 220h300" stroke="#cbd5e1" stroke-width="20"/><rect x="475" y="211" width="18" height="18" fill="#7c3aed"/><rect x="599" y="211" width="18" height="18" fill="#7c3aed"/><rect x="723" y="211" width="18" height="18" fill="#7c3aed"/><text x="405" y="269" fill="#475569" font-size="15">图层 2</text><path d="M470 264h300" stroke="#cbd5e1" stroke-width="20"/><rect x="475" y="255" width="18" height="18" fill="#7c3aed"/><rect x="599" y="255" width="18" height="18" fill="#7c3aed"/><rect x="723" y="255" width="18" height="18" fill="#7c3aed"/><text x="405" y="313" fill="#475569" font-size="15">图层 3</text><path d="M470 308h300" stroke="#cbd5e1" stroke-width="20"/><rect x="475" y="299" width="18" height="18" fill="#7c3aed"/><rect x="599" y="299" width="18" height="18" fill="#7c3aed"/><rect x="723" y="299" width="18" height="18" fill="#7c3aed"/><text x="405" y="357" fill="#475569" font-size="15">图层 4</text><path d="M470 352h300" stroke="#cbd5e1" stroke-width="20"/><rect x="475" y="343" width="18" height="18" fill="#7c3aed"/><rect x="599" y="343" width="18" height="18" fill="#7c3aed"/><rect x="723" y="343" width="18" height="18" fill="#7c3aed"/></svg>
