<svg xmlns="http://www.w3.org/2000/svg" width="960" height="560" viewBox="0 0 960 560" role="img" aria-label="题图替代示意 · cg-11-s1-q60">
<rect width="960" height="560" rx="24" fill="#f8fafc"/>
<rect x="24" y="20" width="912" height="58" rx="14" fill="#ffffff" stroke="#cbd5e1"/>
<text x="52" y="57" fill="#172033" font-size="24" font-weight="700">题图替代示意 · cg-11-s1-q60</text>
<text x="906" y="57" fill="#667085" font-size="15" text-anchor="end">重绘示意 · 非原始截图</text>
<rect x="24" y="486" width="912" height="50" rx="12" fill="#ffffff" stroke="#cbd5e1"/>
<text x="48" y="517" fill="#667085" font-size="16">文档中的艺术字和图片被同时选中，准备作为整体移动。</text>
<rect x="95" y="115" width="770" height="310" rx="12" fill="#fff" stroke="#94a3b8"/><rect x="95" y="115" width="770" height="48" rx="12" fill="#2563eb"/><text x="125" y="147" fill="#fff" font-size="20" font-weight="700">Word 文档编辑界面</text><rect x="125" y="195" width="440" height="10" rx="5" fill="#cbd5e1"/><rect x="125" y="218" width="385" height="10" rx="5" fill="#cbd5e1"/><rect x="125" y="241" width="330" height="10" rx="5" fill="#cbd5e1"/><rect x="125" y="264" width="440" height="10" rx="5" fill="#cbd5e1"/><rect x="125" y="287" width="385" height="10" rx="5" fill="#cbd5e1"/><rect x="125" y="310" width="330" height="10" rx="5" fill="#cbd5e1"/><rect x="125" y="333" width="440" height="10" rx="5" fill="#cbd5e1"/><rect x="125" y="356" width="385" height="10" rx="5" fill="#cbd5e1"/><rect x="600" y="188" width="190" height="170" fill="#dbeafe" stroke="#60a5fa"/><path d="M640 235h110M640 265h86M640 295h120" stroke="#2563eb" stroke-width="6"/><path d="M470 190v195" stroke="#dc2626" stroke-width="3" stroke-dasharray="6 5"/><text x="478" y="215" fill="#dc2626" font-size="14">修订</text><rect x="760" y="188" width="75" height="42" rx="7" fill="#fef3c7"/><text x="798" y="215" text-anchor="middle" fill="#92400e" font-size="14">批注</text></svg>
