<svg xmlns="http://www.w3.org/2000/svg" width="960" height="560" viewBox="0 0 960 560" role="img" aria-label="题图替代示意 · cg-12-s1-q10-dup2">
<rect width="960" height="560" rx="24" fill="#f8fafc"/>
<rect x="24" y="20" width="912" height="58" rx="14" fill="#ffffff" stroke="#cbd5e1"/>
<text x="52" y="57" fill="#172033" font-size="24" font-weight="700">题图替代示意 · cg-12-s1-q10-dup2</text>
<text x="906" y="57" fill="#667085" font-size="15" text-anchor="end">重绘示意 · 非原始截图</text>
<rect x="24" y="486" width="912" height="50" rx="12" fill="#ffffff" stroke="#cbd5e1"/>
<text x="48" y="517" fill="#667085" font-size="16">在幻灯片浏览视图中，使用鼠标左键拖动选定幻灯片至其他位置，此时进行的 幻灯片操作是（ ）。</text>
<rect x="100" y="115" width="760" height="310" rx="12" fill="#fff" stroke="#94a3b8"/><rect x="100" y="115" width="760" height="46" rx="12" fill="#d04423"/><text x="130" y="145" fill="#fff" font-size="20" font-weight="700">PowerPoint 幻灯片浏览视图</text><rect x="150" y="190" width="165" height="88" rx="7" fill="#fff" stroke="#94a3b8" stroke-width="1"/><rect x="162" y="202" width="141" height="18" fill="#fed7aa"/><rect x="162" y="232" width="100" height="8" fill="#cbd5e1"/><rect x="162" y="248" width="120" height="8" fill="#cbd5e1"/><rect x="370" y="190" width="165" height="88" rx="7" fill="#fff" stroke="#94a3b8" stroke-width="3"/><rect x="382" y="202" width="141" height="18" fill="#fed7aa"/><rect x="382" y="232" width="100" height="8" fill="#cbd5e1"/><rect x="382" y="248" width="120" height="8" fill="#cbd5e1"/><rect x="590" y="190" width="165" height="88" rx="7" fill="#fff" stroke="#94a3b8" stroke-width="1"/><rect x="602" y="202" width="141" height="18" fill="#fed7aa"/><rect x="602" y="232" width="100" height="8" fill="#cbd5e1"/><rect x="602" y="248" width="120" height="8" fill="#cbd5e1"/><rect x="150" y="305" width="165" height="88" rx="7" fill="#fff" stroke="#94a3b8" stroke-width="1"/><rect x="162" y="317" width="141" height="18" fill="#fed7aa"/><rect x="162" y="347" width="100" height="8" fill="#cbd5e1"/><rect x="162" y="363" width="120" height="8" fill="#cbd5e1"/><rect x="370" y="305" width="165" height="88" rx="7" fill="#fff" stroke="#94a3b8" stroke-width="1"/><rect x="382" y="317" width="141" height="18" fill="#fed7aa"/><rect x="382" y="347" width="100" height="8" fill="#cbd5e1"/><rect x="382" y="363" width="120" height="8" fill="#cbd5e1"/><rect x="590" y="305" width="165" height="88" rx="7" fill="#fff" stroke="#94a3b8" stroke-width="1"/><rect x="602" y="317" width="141" height="18" fill="#fed7aa"/><rect x="602" y="347" width="100" height="8" fill="#cbd5e1"/><rect x="602" y="363" width="120" height="8" fill="#cbd5e1"/></svg>
