<svg xmlns="http://www.w3.org/2000/svg" width="960" height="560" viewBox="0 0 960 560" role="img" aria-label="题图替代示意 · cg-15-s1-q58">
<rect width="960" height="560" rx="24" fill="#f8fafc"/>
<rect x="24" y="20" width="912" height="58" rx="14" fill="#ffffff" stroke="#cbd5e1"/>
<text x="52" y="57" fill="#172033" font-size="24" font-weight="700">题图替代示意 · cg-15-s1-q58</text>
<text x="906" y="57" fill="#667085" font-size="15" text-anchor="end">重绘示意 · 非原始截图</text>
<rect x="24" y="486" width="912" height="50" rx="12" fill="#ffffff" stroke="#cbd5e1"/>
<text x="48" y="517" fill="#667085" font-size="16">图中所示教学片段是描述教学流程的（ ）。</text>
<rect x="115" y="240" width="145" height="70" rx="12" fill="#fff" stroke="#2563eb" stroke-width="3"/><text x="187" y="282" text-anchor="middle" font-size="18">创设情境</text><path d="M260 275h45" stroke="#2563eb" stroke-width="4"/><path d="m296 264 14 11-14 11" fill="#2563eb"/><rect x="320" y="240" width="145" height="70" rx="12" fill="#fff" stroke="#2563eb" stroke-width="3"/><text x="392" y="282" text-anchor="middle" font-size="18">提出问题</text><path d="M465 275h45" stroke="#2563eb" stroke-width="4"/><path d="m501 264 14 11-14 11" fill="#2563eb"/><rect x="525" y="240" width="145" height="70" rx="12" fill="#fff" stroke="#2563eb" stroke-width="3"/><text x="597" y="282" text-anchor="middle" font-size="18">探究活动</text><path d="M670 275h45" stroke="#2563eb" stroke-width="4"/><path d="m706 264 14 11-14 11" fill="#2563eb"/><rect x="730" y="240" width="145" height="70" rx="12" fill="#fff" stroke="#2563eb" stroke-width="3"/><text x="802" y="282" text-anchor="middle" font-size="18">交流评价</text></svg>
