<svg xmlns="http://www.w3.org/2000/svg" width="960" height="560" viewBox="0 0 960 560" role="img" aria-label="题图替代示意 · dy-c4f581f2">
<rect width="960" height="560" rx="24" fill="#f8fafc"/>
<rect x="24" y="20" width="912" height="58" rx="14" fill="#ffffff" stroke="#cbd5e1"/>
<text x="52" y="57" fill="#172033" font-size="24" font-weight="700">题图替代示意 · dy-c4f581f2</text>
<text x="906" y="57" fill="#667085" font-size="15" text-anchor="end">重绘示意 · 非原始截图</text>
<rect x="24" y="486" width="912" height="50" rx="12" fill="#ffffff" stroke="#cbd5e1"/>
<text x="48" y="517" fill="#667085" font-size="16">下图所示的拓扑结构图所属类型是（）。</text>
<rect x="63" y="207" width="144" height="76" rx="15" fill="#dbeafe" stroke="#2563eb" stroke-width="3"/><text x="135" y="241" fill="#172033" font-size="16" text-anchor="middle">网络服务提供商</text><rect x="288" y="207" width="144" height="76" rx="15" fill="#d1fae5" stroke="#059669" stroke-width="3"/><text x="360" y="241" fill="#172033" font-size="16" text-anchor="middle">调制解调器</text><rect x="513" y="207" width="144" height="76" rx="15" fill="#fef3c7" stroke="#d97706" stroke-width="3"/><text x="585" y="241" fill="#172033" font-size="16" text-anchor="middle">无线路由器</text><rect x="698" y="207" width="144" height="76" rx="15" fill="#ede9fe" stroke="#7c3aed" stroke-width="3"/><text x="770" y="241" fill="#172033" font-size="16" text-anchor="middle">电脑 / 手机</text><path d="M207 245h72" stroke="#64748b" stroke-width="5"/><path d="m269 234 16 11-16 11" fill="#64748b"/><path d="M432 245h72" stroke="#64748b" stroke-width="5"/><path d="m494 234 16 11-16 11" fill="#64748b"/><path d="M657 245h72" stroke="#64748b" stroke-width="5"/><path d="m719 234 16 11-16 11" fill="#64748b"/></svg>
