<svg xmlns="http://www.w3.org/2000/svg" width="960" height="560" viewBox="0 0 960 560" role="img" aria-label="题图替代示意 · dy-fb82fec0">
<rect width="960" height="560" rx="24" fill="#f8fafc"/>
<rect x="24" y="20" width="912" height="58" rx="14" fill="#ffffff" stroke="#cbd5e1"/>
<text x="52" y="57" fill="#172033" font-size="24" font-weight="700">题图替代示意 · dy-fb82fec0</text>
<text x="906" y="57" fill="#667085" font-size="15" text-anchor="end">重绘示意 · 非原始截图</text>
<rect x="24" y="486" width="912" height="50" rx="12" fill="#ffffff" stroke="#cbd5e1"/>
<text x="48" y="517" fill="#667085" font-size="16">照片属性：1024 × 1024 像素；位深度等信息在“详细信息”标签中。</text>
<rect x="82" y="115" width="796" height="310" rx="12" fill="#fff" stroke="#94a3b8"/><rect x="82" y="115" width="796" height="42" rx="12" fill="#217346"/><text x="112" y="144" fill="#fff" font-size="20" font-weight="700">Excel 工作表</text><rect x="145" y="185" width="90" height="30" fill="#fff" stroke="#cbd5e1"/><rect x="145" y="215" width="90" height="30" fill="#fff" stroke="#cbd5e1"/><rect x="145" y="245" width="90" height="30" fill="#fff" stroke="#cbd5e1"/><rect x="145" y="275" width="90" height="30" fill="#fff" stroke="#cbd5e1"/><rect x="145" y="305" width="90" height="30" fill="#fff" stroke="#cbd5e1"/><rect x="145" y="335" width="90" height="30" fill="#fff" stroke="#cbd5e1"/><rect x="145" y="365" width="90" height="30" fill="#fff" stroke="#cbd5e1"/><rect x="235" y="185" width="90" height="30" fill="#fff" stroke="#cbd5e1"/><rect x="235" y="215" width="90" height="30" fill="#fff" stroke="#cbd5e1"/><rect x="235" y="245" width="90" height="30" fill="#fff" stroke="#cbd5e1"/><rect x="235" y="275" width="90" height="30" fill="#fff" stroke="#cbd5e1"/><rect x="235" y="305" width="90" height="30" fill="#fff" stroke="#cbd5e1"/><rect x="235" y="335" width="90" height="30" fill="#fff" stroke="#cbd5e1"/><rect x="235" y="365" width="90" height="30" fill="#fff" stroke="#cbd5e1"/><rect x="325" y="185" width="90" height="30" fill="#fff" stroke="#cbd5e1"/><rect x="325" y="215" width="90" height="30" fill="#fff" stroke="#cbd5e1"/><rect x="325" y="245" width="90" height="30" fill="#fff" stroke="#cbd5e1"/><rect x="325" y="275" width="90" height="30" fill="#fff" stroke="#cbd5e1"/><rect x="325" y="305" width="90" height="30" fill="#fff" stroke="#cbd5e1"/><rect x="325" y="335" width="90" height="30" fill="#fff" stroke="#cbd5e1"/><rect x="325" y="365" width="90" height="30" fill="#fff" stroke="#cbd5e1"/><rect x="415" y="185" width="90" height="30" fill="#fff" stroke="#cbd5e1"/><rect x="415" y="215" width="90" height="30" fill="#fff" stroke="#cbd5e1"/><rect x="415" y="245" width="90" height="30" fill="#fff" stroke="#cbd5e1"/><rect x="415" y="275" width="90" height="30" fill="#fff" stroke="#cbd5e1"/><rect x="415" y="305" width="90" height="30" fill="#fff" stroke="#cbd5e1"/><rect x="415" y="335" width="90" height="30" fill="#fff" stroke="#cbd5e1"/><rect x="415" y="365" width="90" height="30" fill="#fff" stroke="#cbd5e1"/><rect x="505" y="185" width="90" height="30" fill="#fff" stroke="#cbd5e1"/><rect x="505" y="215" width="90" height="30" fill="#fff" stroke="#cbd5e1"/><rect x="505" y="245" width="90" height="30" fill="#fff" stroke="#cbd5e1"/><rect x="505" y="275" width="90" height="30" fill="#fff" stroke="#cbd5e1"/><rect x="505" y="305" width="90" height="30" fill="#fff" stroke="#cbd5e1"/><rect x="505" y="335" width="90" height="30" fill="#fff" stroke="#cbd5e1"/><rect x="505" y="365" width="90" height="30" fill="#fff" stroke="#cbd5e1"/><rect x="595" y="185" width="90" height="30" fill="#fff" stroke="#cbd5e1"/><rect x="595" y="215" width="90" height="30" fill="#fff" stroke="#cbd5e1"/><rect x="595" y="245" width="90" height="30" fill="#fff" stroke="#cbd5e1"/><rect x="595" y="275" width="90" height="30" fill="#fff" stroke="#cbd5e1"/><rect x="595" y="305" width="90" height="30" fill="#fff" stroke="#cbd5e1"/><rect x="595" y="335" width="90" height="30" fill="#fff" stroke="#cbd5e1"/><rect x="595" y="365" width="90" height="30" fill="#fff" stroke="#cbd5e1"/><rect x="685" y="185" width="90" height="30" fill="#fff" stroke="#cbd5e1"/><rect x="685" y="215" width="90" height="30" fill="#fff" stroke="#cbd5e1"/><rect x="685" y="245" width="90" height="30" fill="#fff" stroke="#cbd5e1"/><rect x="685" y="275" width="90" height="30" fill="#fff" stroke="#cbd5e1"/><rect x="685" y="305" width="90" height="30" fill="#fff" stroke="#cbd5e1"/><rect x="685" y="335" width="90" height="30" fill="#fff" stroke="#cbd5e1"/><rect x="685" y="365" width="90" height="30" fill="#fff" stroke="#cbd5e1"/><rect x="145" y="185" width="90" height="30" fill="#d1fae5" stroke="#217346" stroke-width="3"/><text x="190" y="207" text-anchor="middle" fill="#172033" font-size="15">01</text><text x="280" y="207" text-anchor="middle" fill="#172033" font-size="15">02</text><text x="370" y="207" text-anchor="middle" fill="#172033" font-size="15">03</text><rect x="228" y="208" width="9" height="9" fill="#217346"/></svg>
