<svg xmlns="http://www.w3.org/2000/svg" width="960" height="560" viewBox="0 0 960 560" role="img" aria-label="题图替代示意 · zg-33208">
<defs><marker id="arrow" markerWidth="10" markerHeight="8" refX="8" refY="4" orient="auto"><path d="M0,0 L10,4 L0,8z" fill="#2563eb"/></marker></defs><rect width="960" height="560" rx="24" fill="#f8fafc"/>
<rect x="24" y="20" width="912" height="58" rx="14" fill="#ffffff" stroke="#cbd5e1"/>
<text x="52" y="57" fill="#172033" font-size="24" font-weight="700">题图替代示意 · zg-33208</text>
<text x="906" y="57" fill="#667085" font-size="15" text-anchor="end">重绘示意 · 非原始截图</text>
<rect x="24" y="486" width="912" height="50" rx="12" fill="#ffffff" stroke="#cbd5e1"/>
<text x="48" y="517" fill="#667085" font-size="16">某程序流程图如图所示，当执行至“结束”时，变量 C 的值是（ ）。</text>
<ellipse cx="475" cy="135" rx="72" ry="28" fill="#dbeafe" stroke="#2563eb" stroke-width="3"/><text x="475" y="142" text-anchor="middle" font-size="17">开始</text><path d="M475 164v42" stroke="#2563eb" stroke-width="4" marker-end="url(#arrow)"/><path d="M475 205l84 55-84 55-84-55z" fill="#fef3c7" stroke="#d97706" stroke-width="3"/><text x="475" y="265" text-anchor="middle" font-size="17">条件判断</text><path d="M391 260h-125v84h125M559 260h125v84h-125" fill="#fff" stroke="#94a3b8" stroke-width="3"/><text x="329" y="308" text-anchor="middle" font-size="16">分支 A</text><text x="621" y="308" text-anchor="middle" font-size="16">分支 B</text><path d="M329 344v50h292v-50" fill="none" stroke="#2563eb" stroke-width="4"/><path d="M475 394v36" stroke="#2563eb" stroke-width="4" marker-end="url(#arrow)"/><ellipse cx="475" cy="452" rx="72" ry="28" fill="#d1fae5" stroke="#059669" stroke-width="3"/><text x="475" y="459" text-anchor="middle" font-size="17">结束</text></svg>
