<svg xmlns="http://www.w3.org/2000/svg" width="960" height="560" viewBox="0 0 960 560" role="img" aria-label="题图替代示意 · zg-41584">
<rect width="960" height="560" rx="24" fill="#f8fafc"/>
<rect x="24" y="20" width="912" height="58" rx="14" fill="#ffffff" stroke="#cbd5e1"/>
<text x="52" y="57" fill="#172033" font-size="24" font-weight="700">题图替代示意 · zg-41584</text>
<text x="906" y="57" fill="#667085" font-size="15" text-anchor="end">重绘示意 · 非原始截图</text>
<rect x="24" y="486" width="912" height="50" rx="12" fill="#ffffff" stroke="#cbd5e1"/>
<text x="48" y="517" fill="#667085" font-size="16">下图是一个使用 Access 软件创建的数据表： 下列有关该数据表的说法正确的是（ ）。</text>
<rect x="160" y="150" width="150" height="151" rx="10" fill="#fff" stroke="#2563eb" stroke-width="2"/><rect x="160" y="150" width="150" height="42" rx="10" fill="#dbeafe"/><text x="235" y="178" fill="#172033" font-size="18" text-anchor="middle" font-weight="700">学生</text><text x="178" y="218" fill="#667085" font-size="16">学号</text><text x="178" y="248" fill="#667085" font-size="16">姓名</text><text x="178" y="278" fill="#667085" font-size="16">班级</text><rect x="430" y="230" width="150" height="119" rx="10" fill="#fff" stroke="#2563eb" stroke-width="2"/><rect x="430" y="230" width="150" height="42" rx="10" fill="#dbeafe"/><text x="505" y="258" fill="#172033" font-size="18" text-anchor="middle" font-weight="700">选课</text><text x="448" y="298" fill="#667085" font-size="16">学号</text><text x="448" y="328" fill="#667085" font-size="16">课程号</text><rect x="700" y="150" width="150" height="119" rx="10" fill="#fff" stroke="#2563eb" stroke-width="2"/><rect x="700" y="150" width="150" height="42" rx="10" fill="#dbeafe"/><text x="775" y="178" fill="#172033" font-size="18" text-anchor="middle" font-weight="700">课程</text><text x="718" y="218" fill="#667085" font-size="16">课程号</text><text x="718" y="248" fill="#667085" font-size="16">课程名</text><path d="M310 235h120M580 275h120" stroke="#7c3aed" stroke-width="4"/><text x="370" y="225" fill="#7c3aed" font-size="15">1 : n</text><text x="640" y="265" fill="#7c3aed" font-size="15">n : 1</text></svg>
